<svg version="1.2" xmlns="http://www.w3.org/2000/svg" viewBox="0 0 128 128" width="128" height="128">
	<title>icon (4)_adobe_express-svg</title>
	<style>
		.s0 { fill: #a165d7 } 
	</style>
	<path id="Layer" class="s0" d="m76.2 106.3c-9.4 9-20.5 11.1-32 7.1-7.4-2.6-11.9-8.8-13.3-17.1-3.5-21.5 3-40.5 14.6-57.8 8-12 18.9-21.1 33.4-25 12.9-3.5 25.7 6 25.4 18.3-0.3 12-5.3 20.5-14.1 27.5-4.7 3.6-12.3 1.5-14-4-1-3.1 0.5-5.3 3.3-7.3 6.6-4.8 12.4-10.3 12.5-19.4 0-4.7-2.3-6.4-7-5.6-8.1 1.5-13.8 6.6-18.7 12.5-7.2 8.5-12.2 18.3-16.3 28.6-4 9.9-4.7 20.1-3.8 30.5 0.4 5.2 3.5 9.9 8.9 11.2 5.9 1.5 10.6-2 14.3-6 3.1-3.4 5.9-7.8 4.4-12.9-0.6-2.2-2.9-4.1-4.7-5.8-1.1-1.1-3.9-1.6-3.8-2.2 0.2-1.9 0.9-4.1 2.1-5.7 3.4-4.1 8.6-4.2 12.8-2.9 5.6 1.7 11 0.3 16.5 0.6 1.4 0.1 3.8 0.1 3.9 0.7 0.5 1.8 1 4.3 0.1 5.7-3.1 5.2-6.5 10.3-14.3 8.4-0.6 8.3-4 14.9-10.2 20.6z"/>
</svg>